<?xml version="1.0" encoding="UTF-8"?>
<svg width="1024px" height="1024px" viewBox="0 0 1024 1024" version="1.1" xmlns="http://www.w3.org/2000/svg" xmlns:xlink="http://www.w3.org/1999/xlink">
    <!-- Generator: Sketch 64 (93537) - https://sketch.com -->
    <title>Sticker Logo</title>
    <desc>Created with Sketch.</desc>
    <g id="Sticker-Logo" stroke="none" stroke-width="1" fill="none" fill-rule="evenodd">
        <path d="M452.432228,138.087469 L452.690159,138.047778 C476.256856,134.476646 501.743562,132.691081 529.150278,132.691081 C573.55102,132.691081 617.235622,138.413704 660.204082,149.85895 C702.710515,161.181129 739.259954,177.403498 769.852398,198.526057 L770.847866,199.216573 L735.398887,285.055918 L734.027524,284.188127 C702.912619,264.587151 669.711113,249.675698 634.423006,239.453766 C598.615955,229.081512 563.525046,223.895385 529.150278,223.895385 C514.772832,223.895385 501.244343,224.513921 488.564813,225.750995 L488.559639,225.728724 L490.485538,232.476518 C506.278358,287.93395 531.215761,378.406336 557.340833,476.031346 L561.686471,477.126614 C608.264007,488.93102 646.473901,500.730601 676.317254,512.530182 C710.692022,526.121412 740.232839,546.86592 764.939703,574.763708 C789.646568,602.661495 802,640.216208 802,687.427848 C802,726.770881 791.257885,762.716107 769.773655,795.263525 C748.289425,827.810943 715.705009,853.562747 672.020408,872.518936 C667.404235,874.522045 662.676108,876.419321 657.83603,878.210761 L657.843096,878.235273 L658.384205,880.933644 C664.107343,909.663975 666.297691,926.959211 663.565393,927.952557 C660.724487,928.985389 650.617328,913.101512 635.568413,885.494348 L635.563751,885.482629 C599.46035,895.796355 557.901994,900.953219 510.888683,900.953219 C454.313544,900.953219 399.707792,892.190452 347.071429,874.664919 C294.961429,857.314642 253.906193,834.881441 223.905721,807.365317 L223,806.529939 L262.745826,722.836578 L263.607612,723.607683 C292.126316,749.006365 328.54128,769.67267 372.852505,785.606599 C417.611317,801.701476 463.623377,809.748915 510.888683,809.748915 C541.979604,809.748915 569.147213,807.121499 592.391511,801.866668 L590.330376,797.737569 C556.369016,729.593774 514.823883,642.810964 474.797633,557.726421 L470.46443,556.600849 C429.296861,545.845356 394.969099,535.089224 367.481447,524.333092 C332.748609,510.741863 303.028757,489.818522 278.321892,461.563071 C253.615028,433.30762 241.261596,395.216411 241.261596,347.289443 C241.261596,307.231082 251.824675,271.107025 272.950835,238.91727 C284.496935,221.324572 299.305141,205.654865 317.375452,191.908149 C314.134205,154.430408 323.438981,112.611355 361.434677,98.7977548 C397.882619,85.5468514 430.724209,108.975679 452.432228,138.087469 Z M586,587 L590.656348,604.920915 C607.288549,669.078384 622.970999,731.160484 635.534257,783.540435 L636.362573,787 C641.14786,784.505302 645.640012,781.813515 649.839031,778.924639 C680.61301,757.752494 696,729.582776 696,694.415484 C696,668.578291 687.590831,647.585571 670.772493,631.437325 C653.954156,615.289079 633.199611,602.908757 608.50886,594.296359 L606.56175,593.62222 C600.330372,591.480529 593.476455,589.273123 586,587 Z M357.070746,299 L356.78292,299.643155 C350.92764,312.55933 348,326.720589 348,342.126932 C348,367.851809 356.539543,388.753272 373.61863,404.83132 C386.439812,416.901029 401.566936,426.957255 419,435 L411.098891,417.817751 C390.083942,372.065561 371.43182,331.016029 357.070746,299 Z M445,233 L444.494894,233.135732 C424.02301,238.73887 406.776149,246.72853 392.754311,257.104712 C391.821948,257.794661 390.903845,258.490738 390,259.192942 L390.759752,259.90978 C403.187307,271.505997 416.480395,277.579171 426.294539,273.955255 C437.309508,269.887929 443.765966,253.114368 445,233 Z M374.255756,134.167697 C363.411563,138.076564 356.106314,151.614753 354,169 C358.721577,166.592223 363.591245,164.269959 368.60853,162.033973 C381.772764,156.167246 395.903253,151.191455 411,147.106599 C398.462259,135.949259 384.654114,130.419534 374.255756,134.167697 Z" id="Outline" stroke="#FFFFFF" stroke-width="100" fill="#FFFFFF" stroke-linejoin="round"></path>
        <path d="M474.123644,178.143457 C488.77059,218.676734 680.642415,921.460414 662.834556,927.952425 C645.026696,934.444437 340.925492,272.574966 326.206006,232.068133 C311.486533,191.561296 308.774366,118.031653 361.53411,98.7976143 C414.293861,79.5635925 459.476086,137.610402 474.123644,178.143457 Z M374.753882,133.798577 C355.442548,140.838696 347.483007,179.118043 360.466421,214.847402 C373.44986,250.576752 406.288831,280.763613 425.600166,273.723498 C444.911499,266.683379 450.151485,220.920034 437.711783,186.686926 C425.272056,152.453827 394.065217,126.758462 374.753882,133.798577 Z" id="Needle" fill="#313131"></path>
        <path d="M510.888683,901 C574.625232,901 628.335807,891.512803 672.020408,872.538408 C715.705009,853.564013 748.289425,827.787477 769.773655,795.208799 C791.257885,762.630121 802,726.650372 802,687.269553 C802,640.01257 789.646568,602.421788 764.939703,574.497207 C740.232839,546.572626 710.692022,525.808194 676.317254,512.203911 C641.942486,498.599628 596.467532,484.995345 539.892393,471.391061 C496.207792,461.366853 461.653989,451.879655 436.230983,442.929469 C410.807978,433.979283 389.502783,421.449022 372.315399,405.338687 C355.128015,389.228352 346.534323,368.284916 346.534323,342.50838 C346.534323,307.42365 361.752319,278.783054 392.188312,256.586592 C422.624304,234.39013 468.278293,223.291899 529.150278,223.291899 C563.525046,223.291899 598.615955,228.483007 634.423006,238.865223 C670.230056,249.247439 703.888683,264.462756 735.398887,284.511173 L735.398887,284.511173 L770.847866,198.589385 C740.053803,177.108939 703.172542,160.640596 660.204082,149.184358 C617.235622,137.728119 573.55102,132 529.150278,132 C465.413729,132 412.061224,141.666201 369.092764,160.998603 C326.124304,180.331006 294.076994,206.107542 272.950835,238.328212 C251.824675,270.548883 241.261596,306.707635 241.261596,346.804469 C241.261596,394.777467 253.615028,432.905261 278.321892,461.187849 C303.028757,489.470438 332.748609,510.413873 367.481447,524.018156 C402.214286,537.622439 447.868275,551.226723 504.443414,564.831006 C549.560297,575.571229 584.472171,585.23743 609.179035,593.829609 C633.8859,602.421788 654.653989,614.773045 671.483302,630.88338 C688.312616,646.993715 696.727273,667.937151 696.727273,693.713687 C696.727273,728.798417 681.330241,756.902002 650.536178,778.024441 C619.742115,799.146881 573.19295,809.708101 510.888683,809.708101 C463.623377,809.708101 417.611317,801.652933 372.852505,785.542598 C328.093692,769.432263 291.391466,748.488827 262.745826,722.712291 L262.745826,722.712291 L223,806.486034 C253.077922,834.410615 294.435065,857.144088 347.071429,874.686453 C399.707792,892.228818 454.313544,901 510.888683,901 Z" id="Thread" fill="#1CA5A9" fill-rule="nonzero"></path>
        <path d="M659.505953,890.443801 L658.619698,890.7197 C652.876557,892.770334 646.989919,894.678815 640.959828,896.445392 L640.973509,896.478389 L639.309228,893.496304 C626.215328,869.920934 608.598114,835.61379 588.358877,794.834464 L586.384504,790.84996 C604.747446,786.969094 620.471248,781.456257 633.555635,774.349985 L636.307003,785.783682 C646.646338,828.948306 654.796359,865.299361 659.505953,890.443801 Z M360.466421,214.847402 C368.356827,236.561147 383.580554,256.227861 398.644593,266.735813 C380.232136,280.317208 368.273175,296.239006 362.532488,314.809701 L357.277599,303.159252 C340.338457,265.53321 329.024758,239.70759 326.293854,232.307954 L326.206006,232.068133 C320.639453,216.749415 316.790151,196.70787 317.008912,176.666171 C329.510142,167.839482 343.339935,159.843648 358.487105,152.676928 C352.419888,168.763262 352.277645,192.312519 360.466421,214.847402 Z" id="Needle-Overlap" fill="#313131"></path>
    </g>
</svg>