<?xml version="1.0" encoding="UTF-8"?>
<svg width="162px" height="162px" viewBox="0 0 162 162" version="1.1" xmlns="http://www.w3.org/2000/svg" xmlns:xlink="http://www.w3.org/1999/xlink">
    <!-- Generator: Sketch 64 (93537) - https://sketch.com -->
    <title>search-24px-1</title>
    <desc>Created with Sketch.</desc>
    <g id="Page-1" stroke="none" stroke-width="1" fill="none" fill-rule="evenodd">
        <g id="search-24px-1" transform="translate(-17.000000, -17.000000)">
            <path d="M112.823899,126.846396 L112.823899,131.00454 L158.564865,176.654024 L176.654024,158.564865 L131.00454,112.823899 L126.846396,112.823899 C133.577399,103.312164 137.519154,91.7200208 137.519154,79.2595769 C137.519154,63.1709707 130.998519,48.606102 120.455786,38.0633682 C109.913052,27.5206343 95.3481831,21 79.2595769,21 C63.1709707,21 48.606102,27.5206343 38.0633682,38.0633682 C27.5206343,48.606102 21,63.1709707 21,79.2595769 C21,95.3481831 27.5206343,109.913052 38.0633682,120.455786 C48.606102,130.998519 63.1709707,137.519154 79.2595769,137.519154 C91.7200208,137.519154 103.312164,133.577399 112.823899,126.846396 Z" id="Shape-Copy" stroke="#FFFFFF" stroke-width="8" fill="#FFFFFF" fill-rule="nonzero" stroke-linejoin="round"></path>
            <path d="M129.34534,116.823899 L122.750715,116.823899 L120.413379,114.57004 C128.594054,105.053745 133.519154,92.6992567 133.519154,79.2595769 C133.519154,49.2915952 109.227559,25 79.2595769,25 C49.2915952,25 25,49.2915952 25,79.2595769 C25,109.227559 49.2915952,133.519154 79.2595769,133.519154 C92.6992567,133.519154 105.053745,128.594054 114.57004,120.413379 L116.823899,122.750715 L116.823899,129.34534 L158.562035,171 L171,158.562035 L129.34534,116.823899 Z M79.2595769,116.823899 C58.4739851,116.823899 41.6952544,100.045169 41.6952544,79.2595769 C41.6952544,58.4739851 58.4739851,41.6952544 79.2595769,41.6952544 C100.045169,41.6952544 116.823899,58.4739851 116.823899,79.2595769 C116.823899,100.045169 100.045169,116.823899 79.2595769,116.823899 Z M79.4333905,68.7381361 C84.0436577,68.7381361 87.7810177,65.0007761 87.7810177,60.3905089 C87.7810177,55.7802417 84.0436577,52.0428816 79.4333905,52.0428816 C74.8231233,52.0428816 71.0857633,55.7802417 71.0857633,60.3905089 C71.0857633,65.0007761 74.8231233,68.7381361 79.4333905,68.7381361 Z M98.1286449,87.7810177 C102.738912,87.7810177 106.476272,84.0436577 106.476272,79.4333905 C106.476272,74.8231233 102.738912,71.0857633 98.1286449,71.0857633 C93.5183777,71.0857633 89.7810177,74.8231233 89.7810177,79.4333905 C89.7810177,84.0436577 93.5183777,87.7810177 98.1286449,87.7810177 Z M79.0857633,106.476272 C83.6960305,106.476272 87.4333905,102.738912 87.4333905,98.1286449 C87.4333905,93.5183777 83.6960305,89.7810177 79.0857633,89.7810177 C74.4754961,89.7810177 70.7381361,93.5183777 70.7381361,98.1286449 C70.7381361,102.738912 74.4754961,106.476272 79.0857633,106.476272 Z M60.3905089,87.4333905 C65.0007761,87.4333905 68.7381361,83.6960305 68.7381361,79.0857633 C68.7381361,74.4754961 65.0007761,70.7381361 60.3905089,70.7381361 C55.7802417,70.7381361 52.0428816,74.4754961 52.0428816,79.0857633 C52.0428816,83.6960305 55.7802417,87.4333905 60.3905089,87.4333905 Z" id="Shape" fill="#000000" fill-rule="nonzero"></path>
            <polygon id="Path" points="0 0 200 0 200 200 0 200"></polygon>
        </g>
    </g>
</svg>