<?xml version="1.0" encoding="UTF-8"?>
<svg width="146px" height="146px" viewBox="0 0 146 146" version="1.1" xmlns="http://www.w3.org/2000/svg" xmlns:xlink="http://www.w3.org/1999/xlink">
    <!-- Generator: Sketch 64 (93537) - https://sketch.com -->
    <title>Shape</title>
    <desc>Created with Sketch.</desc>
    <g id="Page-1" stroke="none" stroke-width="1" fill="none" fill-rule="evenodd">
        <g id="search-24px-1" transform="translate(-25.000000, -25.000000)" fill="#4B4C4E" fill-rule="nonzero">
            <path d="M129.34534,116.823899 L122.750715,116.823899 L120.413379,114.57004 C128.594054,105.053745 133.519154,92.6992567 133.519154,79.2595769 C133.519154,49.2915952 109.227559,25 79.2595769,25 C49.2915952,25 25,49.2915952 25,79.2595769 C25,109.227559 49.2915952,133.519154 79.2595769,133.519154 C92.6992567,133.519154 105.053745,128.594054 114.57004,120.413379 L116.823899,122.750715 L116.823899,129.34534 L158.562035,171 L171,158.562035 L129.34534,116.823899 Z M79.2595769,116.823899 C58.4739851,116.823899 41.6952544,100.045169 41.6952544,79.2595769 C41.6952544,58.4739851 58.4739851,41.6952544 79.2595769,41.6952544 C100.045169,41.6952544 116.823899,58.4739851 116.823899,79.2595769 C116.823899,100.045169 100.045169,116.823899 79.2595769,116.823899 Z M79.4333905,68.7381361 C84.0436577,68.7381361 87.7810177,65.0007761 87.7810177,60.3905089 C87.7810177,55.7802417 84.0436577,52.0428816 79.4333905,52.0428816 C74.8231233,52.0428816 71.0857633,55.7802417 71.0857633,60.3905089 C71.0857633,65.0007761 74.8231233,68.7381361 79.4333905,68.7381361 Z M98.1286449,87.7810177 C102.738912,87.7810177 106.476272,84.0436577 106.476272,79.4333905 C106.476272,74.8231233 102.738912,71.0857633 98.1286449,71.0857633 C93.5183777,71.0857633 89.7810177,74.8231233 89.7810177,79.4333905 C89.7810177,84.0436577 93.5183777,87.7810177 98.1286449,87.7810177 Z M79.0857633,106.476272 C83.6960305,106.476272 87.4333905,102.738912 87.4333905,98.1286449 C87.4333905,93.5183777 83.6960305,89.7810177 79.0857633,89.7810177 C74.4754961,89.7810177 70.7381361,93.5183777 70.7381361,98.1286449 C70.7381361,102.738912 74.4754961,106.476272 79.0857633,106.476272 Z M60.3905089,87.4333905 C65.0007761,87.4333905 68.7381361,83.6960305 68.7381361,79.0857633 C68.7381361,74.4754961 65.0007761,70.7381361 60.3905089,70.7381361 C55.7802417,70.7381361 52.0428816,74.4754961 52.0428816,79.0857633 C52.0428816,83.6960305 55.7802417,87.4333905 60.3905089,87.4333905 Z" id="Shape"></path>
        </g>
    </g>
</svg>