<?xml version="1.0" encoding="UTF-8"?>
<svg width="1024px" height="1024px" viewBox="0 0 1024 1024" version="1.1" xmlns="http://www.w3.org/2000/svg" xmlns:xlink="http://www.w3.org/1999/xlink">
    <!-- Generator: Sketch 64 (93537) - https://sketch.com -->
    <title>Sticker Logo</title>
    <desc>Created with Sketch.</desc>
    <g id="Sticker-Logo" stroke="none" stroke-width="1" fill="none" fill-rule="evenodd">
        <path d="M343.005641,48.6985187 C367.80713,39.691123 391.522862,41.8303111 413.080063,51.1283325 C430.754431,58.7516154 446.966157,71.5476423 460.634182,86.7431008 C482.520255,84.155959 505.634783,82.8629557 530.128015,82.8629557 C579.575313,82.8629557 628.22519,89.2287234 676.077471,101.961613 C724.494923,114.844888 766.05693,133.431014 800.887939,157.460064 L800.887939,157.460064 L820.516954,171.061783 L761.652133,313.454403 L732.099158,294.772843 C701.391274,275.451395 668.624838,260.751585 633.799506,250.674176 C598.537094,240.47029 563.984064,235.32273 530.128015,235.32273 C527.953788,235.32273 525.799116,235.336795 523.664001,235.36498 C539.275418,290.823154 560.470255,367.888925 582.773102,450.909914 C628.37903,462.783363 666.187564,474.684136 696.222915,486.547304 C736.749737,502.554325 771.585362,526.976475 800.715319,559.834462 C830.950618,593.939253 847,639.581621 847,697.565347 C847,744.811541 834.066382,787.969131 808.241988,827.051051 C783.69138,864.205259 747.189243,894.260937 698.121919,916.529074 C699.438642,924.135396 700.391996,930.563524 700.95633,935.679501 C701.623216,941.72517 701.772763,946.448098 701.601303,949.733529 C701.381382,953.947564 700.635293,957.195028 699.863117,959.554069 C695.826158,971.887199 688.176161,976.02282 681.994433,978.267898 C675.816447,980.511616 667.166253,982.400153 655.873218,975.125626 C653.79255,973.785342 651.159362,971.732627 648.302384,968.605191 C645.997086,966.08166 642.991682,962.188466 639.505235,956.906658 C636.504919,952.361318 632.933508,946.502962 628.854008,939.465678 C593.675358,947.370077 554.33016,951.394701 510.794063,951.394701 C447.84322,951.394701 387.086803,941.640322 328.520081,922.160487 C268.959594,902.350117 222.262579,876.421287 188.01385,845.031598 L188.01385,845.031598 L171.853904,830.142199 L238.851558,689.210699 L267.62716,714.931692 C295.41037,739.643007 330.985829,759.556183 374.118034,775.050048 C418.435813,790.969793 463.99388,798.934926 510.794063,798.934926 C526.577075,798.934926 541.335228,798.271055 555.065317,796.917977 C524.502447,734.913017 489.565695,661.985752 455.279256,589.345782 L452.831399,584.157852 C411.570144,573.163133 376.88962,562.142312 348.771604,551.150934 C307.765717,535.121667 272.671877,510.452699 243.501685,477.127489 C213.35255,442.683895 197.333952,396.520318 197.333952,337.82713 C197.333952,289.757547 210.115637,246.447128 235.482571,207.83586 C246.825042,190.571368 260.750842,174.815123 277.308237,160.610279 C277.169756,138.652541 280.903611,116.512641 289.778525,97.7767464 C300.204564,75.766258 317.308814,58.0310825 343.005641,48.6985187 Z M631.747702,637.727843 C642.267067,678.681153 652.266149,718.306145 661.219215,754.752383 C672.968412,740.963919 679,724.540499 679,705.323336 C679,686.505508 673.345013,670.933148 660.999558,659.074462 C652.414215,650.827631 642.653133,643.728671 631.747702,637.727843 Z" id="Outline" stroke="#FFFFFF" stroke-width="56" fill="#FFFFFF" stroke-linejoin="round"></path>
        <path d="M472.17976,158.934437 C487.670912,201.803365 690.601632,945.083583 671.767383,951.949684 C652.933134,958.815785 331.304483,258.807377 315.736612,215.966417 C300.168754,173.125453 297.300266,95.3588072 353.100918,75.0164445 C408.901576,54.6740996 456.687965,116.065743 472.17976,158.934437 Z M367.082636,112.034269 C346.658257,119.480061 338.239953,159.965181 351.97169,197.753375 C365.703455,235.541559 400.435161,267.467878 420.859541,260.022091 C441.28392,252.576299 446.825922,204.17593 433.669234,167.970206 C420.51252,131.764491 387.507016,104.588482 367.082636,112.034269 Z" id="Needle" fill="#313131"></path>
        <path d="M510.794063,924 C578.273346,924 635.13791,913.969972 681.387755,893.909916 C727.6376,873.84986 762.135436,846.598464 784.881262,812.155726 C807.627087,777.712989 819,739.674581 819,698.040503 C819,648.079609 805.92115,608.337989 779.763451,578.815642 C753.605751,549.293296 722.330241,527.340782 685.93692,512.958101 C649.543599,498.575419 601.398268,484.192737 541.500928,469.810056 C495.251082,459.212291 458.668213,449.182263 431.752319,439.719972 C404.836425,430.257682 382.280148,417.010475 364.083488,399.978352 C345.886827,382.946229 336.788497,360.804469 336.788497,333.553073 C336.788497,296.460894 352.900124,266.181564 385.123377,242.715084 C417.34663,219.248603 465.681509,207.515363 530.128015,207.515363 C566.521336,207.515363 603.672851,213.003492 641.58256,223.979749 C679.49227,234.956006 715.127396,251.041899 748.487941,272.23743 L748.487941,272.23743 L786.018553,181.399441 C753.416203,158.689944 714.369202,141.27933 668.877551,129.167598 C623.3859,117.055866 577.136054,111 530.128015,111 C462.648732,111 406.163265,121.219274 360.671614,141.657821 C315.179963,162.096369 281.250773,189.347765 258.884045,223.412011 C236.517316,257.476257 225.333952,295.703911 225.333952,338.094972 C225.333952,388.812849 238.412801,429.122207 264.570501,459.023045 C290.7282,488.923883 322.193259,511.065642 358.965677,525.448324 C395.738095,539.831006 444.072975,554.213687 503.970315,568.596369 C551.736549,579.951117 588.698516,590.170391 614.856215,599.25419 C641.013915,608.337989 663.001546,621.39595 680.819109,638.428073 C698.636673,655.460196 707.545455,677.601955 707.545455,704.853352 C707.545455,741.945531 691.24428,771.657123 658.641929,793.988128 C626.039579,816.319134 576.756957,827.484637 510.794063,827.484637 C460.753247,827.484637 412.03927,818.968575 364.652134,801.936453 C317.264997,784.90433 278.407545,762.76257 248.079777,735.511173 L248.079777,735.511173 L206,824.078212 C237.844156,853.600559 281.62987,877.634777 337.357143,896.180866 C393.084416,914.726955 450.896722,924 510.794063,924 Z" id="Thread" fill="#0082E2" fill-rule="nonzero"></path>
        <path d="M667,899.255039 L666.364776,899.463252 C658.99277,902.206145 651.375339,904.714226 643.512481,906.987497 L643.517396,907 L641.325448,902.912988 C629.317579,880.431386 614.553864,851.324917 598.008123,817.795526 L598,817.774501 C615.900527,813.678891 631.593962,808.08739 645.080304,801 L646.992059,809.082564 C655.357316,844.57383 662.24097,875.390911 667,899.255039 Z M351.934819,196.965465 C358.662625,215.271481 370.366359,232.204145 383,243.966533 C366.537195,256.450298 354.508605,270.79528 346.913875,287 L341.856546,275.858201 C327.233303,243.574835 317.629533,221.748613 315.22615,215.209131 C310.781614,203.115775 307.358804,188.24405 306,172.664289 C317.931434,163.664663 331.19371,155.443382 345.786944,148 C343.998743,162.75559 345.746661,180.127804 351.934819,196.965465 Z" id="Flattened-Intersect" fill="#313131"></path>
    </g>
</svg>